HIERARCHY
ROOT Hips
{
	OFFSET	0.00	0.00	0.00
	CHANNELS 6 Xposition Yposition Zposition Zrotation Xrotation Yrotation
	JOINT Spine
	{
		OFFSET	 0.00	0.01	 0.00
		CHANNELS 3 Zrotation Xrotation Yrotation
		JOINT Spine1
		{
			OFFSET	 0.00	 2.45913012437421	 0.00
			CHANNELS 3 Zrotation Xrotation Yrotation
            JOINT Neck
            {
                OFFSET	 0.00	 2.48462964506057	 0.00
                CHANNELS 3 Zrotation Xrotation Yrotation
                JOINT Head
                {
                    OFFSET	 0.00	 0.927524780924562	 0.00
                    CHANNELS 3 Zrotation Xrotation Yrotation
                    End Site 
                    {
                        OFFSET	 0.00	 1.14999962169752	 0.00
                    }
                }
            }
			JOINT LeftShoulder
			{
				OFFSET	 0.00	 2.48462964506057	 0.00
				CHANNELS 3 Zrotation Xrotation Yrotation
				JOINT LeftUpArm
				{
					OFFSET	 0.00	 1.24881979654096	 0.00
					CHANNELS 3 Zrotation Xrotation Yrotation
					JOINT LeftForeArm
					{
						OFFSET	 0.00	2.59758046908119	 0.00
						CHANNELS 3 Zrotation Xrotation Yrotation
						JOINT LeftHand
						{
							OFFSET	 0.00	2.45542024364365	 0.00
							CHANNELS 3 Zrotation Xrotation Yrotation
							JOINT LeftHandThumb 
							{
								OFFSET	 0.00	0.00	 0.00
								CHANNELS 3 Zrotation Xrotation Yrotation
								End Site
								{
									OFFSET	 0.00	0.00	1.00000003353624
								}
							}
							JOINT L_Wrist_End 
							{
								OFFSET	 0.00	0.99999967115358	 0.00
								CHANNELS 3 Zrotation Xrotation Yrotation
								End Site 
								{
									OFFSET	 0.00	 0.00	 0.00
								}
							}
						}
					}
				}
			}
			JOINT RightShoulder
			{
				OFFSET	 0.00	 2.48462964506057	 0.00
				CHANNELS 3 Zrotation Xrotation Yrotation
				JOINT RightUpArm
				{
					OFFSET	 0.00	 1.24881979654096	 0.00
					CHANNELS 3 Zrotation Xrotation Yrotation
					JOINT RightForeArm
					{
						OFFSET	 0.00	2.59758046908119	 0.00
						CHANNELS 3 Zrotation Xrotation Yrotation
						JOINT RightHand
						{
							OFFSET	 0.00	2.45542024364365	 0.00
							CHANNELS 3 Zrotation Xrotation Yrotation
							JOINT RightHandThumb 
							{
								OFFSET	 0.00	0.00	 0.00
								CHANNELS 3 Zrotation Xrotation Yrotation
								End Site
								{
									OFFSET	 0.00	0.00	1.00000003353624
								}
							}
							JOINT R_Wrist_End 
							{
								OFFSET	 0.00	0.99999967115358	 0.00
								CHANNELS 3 Zrotation Xrotation Yrotation
								End Site 
								{
									OFFSET	 0.00	 0.00	 0.00
								}
							}
						}
					}
				}
			}
		}
	}
	JOINT LeftUpLeg
	{
		OFFSET	 1.2719394002717	 0.00	 0.00
		CHANNELS 3 Zrotation Xrotation Yrotation
		JOINT LeftLowLeg
		{
			OFFSET	 0.00	-4.3429100912261	 0.00
			CHANNELS 3 Zrotation Xrotation Yrotation
			JOINT LeftFoot
			{
				OFFSET	 0.00	-4.48767017425826	 0.00
				CHANNELS 3 Zrotation Xrotation Yrotation
				JOINT LeftToeBase
                {
                    OFFSET	 0.00	0.00	 1.51507020887566
                    CHANNELS 3 Zrotation Xrotation Yrotation
                    End Site 
                    {
                        OFFSET	 0.00	0.00	 0.75000010571191
                    }
                }
			}
		}
	}
	JOINT RightUpLeg
	{
		OFFSET	 -1.2719393604653	 0.00	 0.00
		CHANNELS 3 Zrotation Xrotation Yrotation
		JOINT RightLowLeg
		{
			OFFSET	 0.00	-4.3429100912261	 0.00
			CHANNELS 3 Zrotation Xrotation Yrotation
			JOINT RightFoot
			{
				OFFSET	 0.00	-4.48767017425826	 0.00
				CHANNELS 3 Zrotation Xrotation Yrotation
				JOINT RightToeBase
                {
                    OFFSET	 0.00	0.00	 1.51507020887566
                    CHANNELS 3 Zrotation Xrotation Yrotation
                    End Site 
                    {
                        OFFSET	 0.00	0.00	 0.749999965609858
                    }
                }   
			}
		}
	}
}
MOTION 
Frames:	20 
Frame Time: 0.02 
  -0.8085109710693359 -0.9138459777832031 6.668049926757813 12.5732 70.6811 -736.48 -0.434338 -2.83079 8.73437 -0.378505 31.8789 -9.24495 18.2424 63.0407 348.073 -52.5672 -83.3606 678.364 -114.1501 -0.152266 368.581 -43.1238 19.1501 12.4069 0.0 128.918 0.0 25.1281 -6.96587 47.2273 0.0 0.0 0.0 0.0 0.0 0.0 114.691605 -2.35501 -365.085 45.749 11.3482 -388.591 0.0 124.936 0.0 -28.9806 -26.6014 32.5942 0.0 0.0 0.0 0.0 0.0 0.0 -45.9234 -65.2755 -739.153 0.0 88.939 0.0 -5.28826 31.9744 3.2396 0.0 -47.7325 0.0 22.1855 -48.6667 18.3307 0.0 73.5954 0.0 19.6475 9.24815 -6.91012 0.0 -22.73422 0.0 
  -0.8083200073242187 -0.9142150115966797 6.667780151367188 12.571 70.7176 -736.491 -0.421016 -2.76551 8.74893 -0.457871 31.7715 -9.27234 18.1943 62.7817 348.095 -52.5268 -83.4044 678.331 -114.1194 -0.190613 368.478 -43.1497 19.0873 12.4316 0.0 128.88 0.0 25.201 -7.01764 46.9371 0.0 0.0 0.0 0.0 0.0 0.0 114.6947 -2.36296 -365.07 45.6795 11.3859 -388.744 0.0 124.929 0.0 -29.0807 -26.2737 32.6871 0.0 0.0 0.0 0.0 0.0 0.0 -45.936 -65.3049 -739.166 0.0 88.9601 0.0 -5.30851 31.9546 3.27344 0.0 -47.6686 0.0 22.2264 -48.6963 18.3725 0.0 73.598 0.0 19.6361 9.25522 -6.9134 0.0 -22.75482 0.0 
  -0.8082890319824219 -0.9148069763183594 6.667689819335937 12.584 70.7574 -736.506 -0.42004 -2.65241 8.75821 -0.560439 31.5846 -9.31759 18.3866 62.6304 347.895 -52.9957 -83.5431 677.862 -114.1298 -0.227954 368.43 -43.1017 18.9721 12.407 0.0 128.862 0.0 25.2262 -6.91679 46.6467 0.0 0.0 0.0 0.0 0.0 0.0 114.745895 -2.36095 -365.125 45.6365 11.339 -388.66 0.0 124.875 0.0 -28.4967 -25.7081 33.0729 0.0 0.0 0.0 0.0 0.0 0.0 -45.9709 -65.3317 -739.205 0.0 88.9846 0.0 -5.35201 31.9525 3.28064 0.0 -47.6201 0.0 22.2619 -48.7299 18.4136 0.0 73.6016 0.0 19.6325 9.25762 -6.91988 0.0 -22.73945 0.0 
  -0.8087129974365235 -0.9153559875488281 6.668300170898437 12.5744 70.7952 -736.514 -0.426944 -2.56196 8.76115 -0.646144 31.465 -9.36094 18.4304 62.4025 347.872 -52.8967 -83.6603 677.924 -114.0646 -0.272808 368.418 -43.1475 18.8714 12.3624 0.0 128.846 0.0 25.1505 -6.79735 46.7156 0.0 0.0 0.0 0.0 0.0 0.0 114.7623 -2.35011 -365.126 45.6673 11.2385 -388.663 0.0 124.774 0.0 -28.0701 -25.2689 33.1236 0.0 0.0 0.0 0.0 0.0 0.0 -45.9283 -65.3598 -739.162 0.0 89.0216 0.0 -5.34905 31.9188 3.28 0.0 -47.5348 0.0 22.3211 -48.7417 18.4796 0.0 73.5857 0.0 19.6635 9.261061 -6.92983 0.0 -22.72907 0.0 
  -0.8086260223388672 -0.915656967163086 6.66885009765625 12.5648 70.8221 -736.517 -0.449058 -2.45273 8.7555 -0.696293 31.3678 -9.39339 18.5451 62.0941 347.755 -52.6379 -83.7885 678.145 -114.0682 -0.335216 368.416 -43.1116 18.8517 12.3553 0.0 128.84 0.0 25.1506 -6.83314 46.7949 0.0 0.0 0.0 0.0 0.0 0.0 114.7895 -2.38249 -365.088 45.6597 11.2066 -388.709 0.0 124.673 0.0 -27.7427 -25.2897 33.1682 0.0 0.0 0.0 0.0 0.0 0.0 -45.9101 -65.3684 -739.146 0.0 89.0476 0.0 -5.37603 31.9034 3.28612 0.0 -47.518 0.0 22.3578 -48.7536 18.5216 0.0 73.5763 0.0 19.6633 9.28121 -6.93656 0.0 -22.74015 0.0 
  -0.8086000061035157 -0.9159970092773437 6.669249877929688 12.5467 70.8522 -736.508 -0.485308 -2.33505 8.74829 -0.729973 31.223 -9.41669 18.8219 61.823 347.47 -52.3793 -83.9425 678.328 -114.0609 -0.321549 368.499 -43.0882 18.7983 12.3074 0.0 128.775 0.0 25.1837 -6.81873 46.8413 0.0 0.0 0.0 0.0 0.0 0.0 114.7906 -2.33451 -365.149 45.5964 11.237 -388.659 0.0 124.555 0.0 -27.6059 -25.3769 33.4561 0.0 0.0 0.0 0.0 0.0 0.0 -45.9086 -65.3833 -739.148 0.0 89.0822 0.0 -5.34349 31.9094 3.28038 0.0 -47.5306 0.0 22.3945 -48.7672 18.5572 0.0 73.5674 0.0 19.653 9.28677 -6.94543 0.0 -22.71407 0.0 
  -0.8085399627685547 -0.9164459991455078 6.6689697265625 12.5337 70.8895 -736.508 -0.50971 -2.1714 8.75556 -0.813292 31.0401 -9.45022 19.4121 61.331 346.785 -51.556 -84.1278 679.051 -114.047 -0.333209 368.603 -43.049 18.7566 12.2157 0.0 128.64 0.0 25.2386 -6.73212 46.9514 0.0 0.0 0.0 0.0 0.0 0.0 114.8625 -2.31859 -365.288 45.5704 11.2441 -388.347 0.0 124.49 0.0 -26.8253 -25.5201 33.4166 0.0 0.0 0.0 0.0 0.0 0.0 -45.9319 -65.4158 -739.157 0.0 89.1355 0.0 -5.43518 31.8541 3.33171 0.0 -47.386 0.0 22.449 -48.7987 18.6205 0.0 73.5738 0.0 19.6799 9.31986 -6.94225 0.0 -22.72182 0.0 
  -0.8083609771728516 -0.9167510223388672 6.668740234375 12.4951 70.9238 -736.474 -0.554734 -2.05853 8.73353 -0.796892 30.9496 -9.46444 19.6503 60.9101 346.509 -51.1074 -84.2861 679.394 -114.0759 -0.354084 368.65 -43.0226 18.7156 12.1507 0.0 128.486 0.0 25.307 -6.515 46.842 0.0 0.0 0.0 0.0 0.0 0.0 114.8775 -2.35598 -365.301 45.5332 11.2368 -388.161 0.0 124.453 0.0 -26.0928 -25.4491 33.1215 0.0 0.0 0.0 0.0 0.0 0.0 -45.9779 -65.4498 -739.197 0.0 89.189 0.0 -5.24079 31.9232 3.27593 0.0 -47.5288 0.0 22.483 -48.8312 18.637 0.0 73.5815 0.0 19.6987 9.33786 -6.93553 0.0 -22.71135 0.0 
  -0.8079180145263671 -0.9168730163574219 6.6683197021484375 12.4475 70.9581 -736.443 -0.594933 -1.92322 8.73715 -0.797307 30.801 -9.45483 20.1231 60.5031 345.966 -50.3142 -84.4452 680.086 -114.0917 -0.336274 368.636 -43.0561 18.6121 12.1268 0.0 128.337 0.0 25.3985 -6.42334 46.7528 0.0 0.0 0.0 0.0 0.0 0.0 114.9149 -2.42102 -365.315 45.5871 11.1091 -387.713 0.0 124.459 0.0 -24.5907 -25.8061 33.4489 0.0 0.0 0.0 0.0 0.0 0.0 -46.0254 -65.5016 -739.232 0.0 89.2421 0.0 -5.29376 31.9728 3.25627 0.0 -47.616 0.0 22.5321 -48.8655 18.6845 0.0 73.5914 0.0 19.6931 9.382549 -6.91384 0.0 -22.70147 0.0 
  -0.8073899841308594 -0.9169570159912109 6.667830200195312 12.3853 71.0196 -736.384 -0.591445 -1.82866 8.72727 -0.841255 30.6658 -9.49199 20.5416 60.1463 345.486 -49.4983 -84.5809 680.773 -114.1185 -0.351288 368.717 -42.9849 18.5787 12.0226 0.0 128.217 0.0 25.4138 -6.36831 46.7267 0.0 0.0 0.0 0.0 0.0 0.0 114.895905 -2.39783 -365.301 45.6384 11.0504 -387.446 0.0 124.35 0.0 -23.8107 -25.7532 32.9952 0.0 0.0 0.0 0.0 0.0 0.0 -46.1101 -65.5627 -739.304 0.0 89.2967 0.0 -5.37737 32.0355 3.2155 0.0 -47.6684 0.0 22.5751 -48.9252 18.7034 0.0 73.5948 0.0 19.7275 9.413 -6.88638 0.0 -22.6749 0.0 
  -0.8064759826660156 -0.9168250274658203 6.667139892578125 12.2844 71.0883 -736.289 -0.570418 -1.70638 8.71759 -0.890754 30.4844 -9.53372 20.8276 59.8445 345.168 -48.7643 -84.6998 681.359 -114.0874 -0.382779 368.681 -43.0184 18.4621 12.0859 0.0 128.105 0.0 25.5059 -6.28369 46.6098 0.0 0.0 0.0 0.0 0.0 0.0 114.9271 -2.44144 -365.275 45.6405 11.0268 -387.352 0.0 124.28 0.0 -23.1845 -25.9011 33.095 0.0 0.0 0.0 0.0 0.0 0.0 -46.2027 -65.6354 -739.383 0.0 89.3448 0.0 -5.3954 32.030502 3.15965 0.0 -47.7281 0.0 22.6259 -48.9875 18.7147 0.0 73.5951 0.0 19.7346 9.45265 -6.85834 0.0 -22.70717 0.0 
  -0.8054840087890625 -0.9169740295410156 6.666439819335937 12.1592 71.1881 -736.172 -0.538687 -1.59734 8.71675 -0.916313 30.2477 -9.55211 21.24 59.6191 344.698 -48.228 -84.8092 681.821 -114.0851 -0.389976 368.698 -43.0139 18.3876 12.1721 0.0 127.978 0.0 25.6984 -6.08682 46.7005 0.0 0.0 0.0 0.0 0.0 0.0 114.922195 -2.47078 -365.198 45.6399 10.9653 -387.428 0.0 124.14 0.0 -23.2347 -25.6594 33.1 0.0 0.0 0.0 0.0 0.0 0.0 -46.3261 -65.7272 -739.512 0.0 89.4073 0.0 -5.33139 32.0176 3.09023 0.0 -47.7094 0.0 22.704 -49.0694 18.7431 0.0 73.5912 0.0 19.7749 9.47566 -6.82574 0.0 -22.68142 0.0 
  -0.8042620086669922 -0.9170459747314453 6.66552978515625 12.0726 71.317 -736.082 -0.507775 -1.49558 8.69516 -0.933972 29.9919 -9.5935 21.4869 59.3666 344.394 -47.6148 -84.8793 682.378 -114.0884 -0.453011 368.805 -42.9926 18.4382 12.1797 0.0 127.888 0.0 25.8782 -5.84123 46.7295 0.0 0.0 0.0 0.0 0.0 0.0 114.8935 -2.47658 -365.127 45.6411 10.9542 -387.598 0.0 123.972 0.0 -23.3471 -25.5024 33.0773 0.0 0.0 0.0 0.0 0.0 0.0 -46.5078 -65.8327 -739.699 0.0 89.4604 0.0 -5.201 32.015 3.00965 0.0 -47.678 0.0 22.7827 -49.1902 18.7821 0.0 73.5961 0.0 19.8042 9.51433 -6.78711 0.0 -22.71299 0.0 
  -0.8029129791259766 -0.9172850036621094 6.664619750976563 11.9904 71.428 -735.996 -0.490284 -1.33888 8.69204 -0.961855 29.668 -9.61523 21.9857 59.1692 343.832 -47.7964 -85.0474 682.093 -114.1025 -0.497363 368.853 -42.9692 18.4304 12.1365 0.0 127.892 0.0 25.7525 -5.90491 46.869 0.0 0.0 0.0 0.0 0.0 0.0 114.8962 -2.43526 -365.114 45.6159 10.8702 -387.59 0.0 123.809 0.0 -23.0499 -25.4525 33.2529 0.0 0.0 0.0 0.0 0.0 0.0 -46.6577 -65.9247 -739.834 0.0 89.5164 0.0 -5.19061 32.0635 2.99761 0.0 -47.796 0.0 22.8653 -49.2953 18.835 0.0 73.6065 0.0 19.8501 9.53964 -6.7697 0.0 -22.713211 0.0 
  -0.8017330169677734 -0.9176129913330078 6.663900146484375 11.9695 71.5355 -735.978 -0.47403 -1.17858 8.70513 -1.00336 29.382 -9.62249 22.4074 58.8386 343.326 -47.3809 -85.1878 682.382 -114.0699 -0.569265 368.87 -42.9647 18.4225 12.0303 0.0 127.893 0.0 25.5579 -6.05557 47.1417 0.0 0.0 0.0 0.0 0.0 0.0 114.9207 -2.40099 -365.222 45.463 10.8527 -387.443 0.0 123.674 0.0 -22.5784 -25.0018 32.985 0.0 0.0 0.0 0.0 0.0 0.0 -46.7829 -66.0229 -739.942 0.0 89.5512 0.0 -5.16 32.063103 2.96071 0.0 -47.8534 0.0 22.9438 -49.4015 18.9063 0.0 73.6199 0.0 19.8836 9.57323 -6.75307 0.0 -22.69431 0.0 
  -0.8007489776611328 -0.9176409912109375 6.66322021484375 11.9486 71.6255 -735.943 -0.48324 -0.99122 8.69795 -1.00099 29.1057 -9.6316 23.0065 58.465 342.591 -47.2677 -85.358 682.369 -114.0732 -0.6054 368.946 -42.9066 18.4491 11.6731 0.0 127.89 0.0 25.4127 -6.30373 46.871 0.0 0.0 0.0 0.0 0.0 0.0 114.9693 -2.40865 -365.322 45.2816 10.9263 -386.956 0.0 123.516 0.0 -21.0513 -24.3095 32.9417 0.0 0.0 0.0 0.0 0.0 0.0 -46.9134 -66.1032 -740.051 0.0 89.6029 0.0 -5.11421 32.046402 2.90201 0.0 -47.8565 0.0 23.0025 -49.4918 18.9568 0.0 73.6301 0.0 19.9436 9.58989 -6.75301 0.0 -22.717579 0.0 
  -0.7999440002441406 -0.9180339813232422 6.663070068359375 11.9416 71.7016 -735.915 -0.536052 -0.774995 8.68742 -0.92474 28.8305 -9.60514 23.7209 58.0061 341.674 -47.5718 -85.5502 681.955 -114.0301 -0.644752 368.959 -42.9648 18.3869 11.3419 0.0 127.853 0.0 25.3866 -6.32858 46.3823 0.0 0.0 0.0 0.0 0.0 0.0 115.0262 -2.39316 -365.317 45.0593 10.833 -386.072 0.0 123.456 0.0 -18.506 -23.602 31.8077 0.0 0.0 0.0 0.0 0.0 0.0 -47.0113 -66.1709 -740.117 0.0 89.6626 0.0 -5.09214 32.065903 2.84499 0.0 -47.8787 0.0 23.064 -49.5642 19.034 0.0 73.6383 0.0 20.0125 9.613581 -6.77281 0.0 -22.74807 0.0 
  -0.7989060211181641 -0.9173680114746093 6.662440185546875 11.9151 71.7714 -735.907 -0.571073 -0.483635 8.69733 -0.907045 28.4899 -9.58232 24.4529 57.6013 340.767 -48.0158 -85.7671 681.409 -114.025 -0.742526 368.949 -42.9092 18.3693 10.87 0.0 127.879 0.0 25.2938 -6.49445 45.7564 0.0 0.0 0.0 0.0 0.0 0.0 115.025604 -2.35201 -365.237 44.8664 10.7835 -384.879 0.0 123.309 0.0 -15.7382 -22.9075 28.8108 0.0 0.0 0.0 0.0 0.0 0.0 -47.0835 -66.289 -740.185 0.0 89.7361 0.0 -4.9352 32.1498 2.75163 0.0 -47.9961 0.0 23.1705 -49.6158 19.1641 0.0 73.6242 0.0 20.1212 9.63789 -6.80206 0.0 -22.77427 0.0 
  -0.7983209991455078 -0.9168049621582032 6.662310180664062 11.948 71.825 -735.931 -0.670731 -0.204562 8.70241 -0.808087 28.1993 -9.52441 25.4219 57.163 339.567 -48.56 -85.9973 680.721 -113.9569 -0.781247 369.048 -42.9188 18.409 10.2831 0.0 127.981 0.0 25.0965 -6.65525 45.4131 0.0 0.0 0.0 0.0 0.0 0.0 115.0184 -2.32654 -365.161 44.5691 10.7479 -383.222 0.0 123.06 0.0 -12.6765 -22.0591 26.529 0.0 0.0 0.0 0.0 0.0 0.0 -47.1597 -66.3638 -740.22 0.0 89.8244 0.0 -4.92593 32.1138 2.76015 0.0 -48.035 0.0 23.2379 -49.6714 19.2655 0.0 73.6306 0.0 20.1992 9.66356 -6.84064 0.0 -22.7858 0.0 
  -0.7971769714355469 -0.9169229888916015 6.643889770507813 12.1456 72.2493 -736.142 0.575828 2.93736 9.14701 -4.0672 22.1893 -10.6889 29.3715 61.4873 336.867 -75.3512 -86.9045 653.897 -113.8114 -2.90744 371.52 -41.5403 18.1334 8.84896 0.0 127.962 0.0 25.4239 -6.69462 44.6111 0.0 0.0 0.0 0.0 0.0 0.0 116.9391 -1.98512 -368.648 43.0295 10.6128 -380.799 0.0 122.41 0.0 -11.9973 -21.5461 24.7907 0.0 0.0 0.0 0.0 0.0 0.0 -48.2784 -66.9099 -741.39 0.0 90.181 0.0 -4.90209 32.1074 2.84708 0.0 -48.0695 0.0 23.7662 -50.2579 19.8471 0.0 73.9509 0.0 20.3243 9.60754 -6.88064 0.0 -22.74283 0.0 
